<svg xmlns="http://www.w3.org/2000/svg" xmlns:xlink="http://www.w3.org/1999/xlink" width="600" height="400" viewBox="0 0 600 400"><rect width="100%" height="100%" fill="#060606"/><path d="M265.23 147.05L258.17 135.88Q261.86 132.62 266.26 129.69Q270.65 126.76 275.75 124.59Q280.85 122.42 286.82 121.17Q292.78 119.93 299.73 119.93L299.73 119.93Q309.17 119.93 316.93 122.53Q324.68 125.13 330.22 129.96Q335.75 134.79 338.79 141.63Q341.83 148.46 341.83 156.93L341.83 156.93Q341.83 165.17 339.44 171.19Q337.05 177.21 333.47 181.66Q329.89 186.11 325.61 189.37Q321.32 192.62 317.52 195.50Q313.73 198.37 310.96 201.14Q308.19 203.91 307.65 207.38L307.65 207.38L305.15 223.22L286.82 223.22L284.97 205.53Q284.32 200.43 286.44 196.58Q288.55 192.73 292.08 189.53Q295.61 186.33 299.95 183.35Q304.29 180.36 308.08 176.84Q311.88 173.31 314.43 168.91Q316.98 164.52 316.98 158.44L316.98 158.44Q316.98 154.54 315.52 151.45Q314.05 148.35 311.45 146.13Q308.84 143.91 305.21 142.71Q301.57 141.52 297.34 141.52L297.34 141.52Q291.16 141.52 286.87 142.87Q282.59 144.23 279.60 145.91Q276.62 147.59 274.56 148.95Q272.50 150.31 270.87 150.31L270.87 150.31Q266.96 150.31 265.23 147.05L265.23 147.05ZM278.68 263.80L278.68 263.80Q278.68 260.43 279.93 257.40Q281.18 254.36 283.35 252.19Q285.52 250.02 288.55 248.72Q291.59 247.41 295.06 247.41L295.06 247.41Q298.54 247.41 301.52 248.72Q304.50 250.02 306.73 252.19Q308.95 254.36 310.25 257.40Q311.56 260.43 311.56 263.80L311.56 263.80Q311.56 267.27 310.25 270.25Q308.95 273.24 306.73 275.41Q304.50 277.58 301.52 278.83Q298.54 280.07 295.06 280.07L295.06 280.07Q291.59 280.07 288.55 278.83Q285.52 277.58 283.35 275.41Q281.18 273.24 279.93 270.25Q278.68 267.27 278.68 263.80Z" fill="#bfbfbf"/></svg>